PathFileType	4	(X/Y/Z)	C:/Users/beibeiliu/ov580/test_trc/capture2\sequence.2_training_dense_right.trc
DataRate	CameraRate	NumFrames	NumMarkers	Units	OrigDataRate	OrigDataStartFrame	OrigNumFrames
120	120	18	19	mm	120	157	313
Frame#	Time	ThumbCMC			ThumbMCP			ThumbIP			ThumbTip			IndexMCP			IndexPIP			IndexTip			MiddleMCP			MiddlePIP			MiddleTip			RingMCP			RingPIP			RingTip			PinkyMCP			PinkyPIP			PinkyTip			BackHand1			BackHand2			BackHand3	
		X0	Y0	Z0	X1	Y1	Z1	X2	Y2	Z2	X3	Y3	Z3	X4	Y4	Z4	X5	Y5	Z5	X6	Y6	Z6	X7	Y7	Z7	X8	Y8	Z8	X9	Y9	Z9	X10	Y10	Z10	X11	Y11	Z11	X12	Y12	Z12	X13	Y13	Z13	X14	Y14	Z14	X15	Y15	Z15	X16	Y16	Z16	X17	Y17	Z17	X18	Y18	Z18	
156	1.3	105.445	-39.7517	1.26447	90.7257	-55.3642	-21.2801	75.3302	-56.3578	-46.2567	72.997	-49.0108	-70.4279	65.6422	-4.46026	-51.9022	60.1433	-26.2586	-74.4011	78.9485	-46.9633	-61.6686	80.8018	0.434972	-69.1917	73.078	-23.1074	-86.3855	98.8678	-47.7301	-66.1421	96.3554	-0.499428	-78.6875	94.2148	-29.5432	-90.636	107.456	-47.8774	-67.2824	120.808	-1.97686	-79.629	110.535	-26.9428	-90.2581	120.367	-49.4746	-65.5668	130.086	9.83135	-34.0096	149.657	0.637447	-8.82767	115.951	-0.177277	-3.27948	
157	1.30833	102.726	-37.5186	-1.00816	85.3727	-48.8231	-30.671	72.8539	-49.9539	-55.8951	77.9202	-41.9455	-79.6211	72.7596	0.43756	-58.2332	61.614	-19.8536	-81.2217	80.909	-44.0696	-64.7133	83.3193	3.05652	-76.5573	83.3329	-23.6031	-93.8465	101.493	-45.5539	-70.2993	107.838	0.978313	-84.3188	100.646	-25.8042	-96.8658	113.834	-47.0886	-71.9494	126.994	-1.31331	-83.6359	116.954	-27.1185	-93.4551	123.656	-46.367	-69.1011	135.704	11.1753	-32.3524	149.13	4.08319	-7.50849	112.615	0.774225	-6.15385	
158	1.31667	98.3593	-31.0408	-10.6169	85.0036	-47.0626	-33.2025	76.5849	-46.6843	-62.0158	80.1613	-40.615	-88.5743	77.5555	5.28716	-69.9576	68.1409	-14.4333	-90.2579	86.2622	-40.8154	-72.8841	94.6983	6.03365	-82.6032	89.9694	-20.3324	-101.565	105.301	-44.2827	-76.1258	113.761	0.788101	-88.5025	108.258	-26.1403	-99.9372	113.563	-45.7675	-69.1963	135.233	-2.44173	-87.4013	123.429	-30.2484	-94.435	129.893	-45.5837	-67.9038	137.005	13.2134	-40.1589	147.744	3.25046	-12.027	112.01	4.0081	-12.211	
159	1.325	97.6578	-26.3984	-11.5418	88.7908	-39.6246	-40.2559	80.4799	-43.4324	-64.3456	87.5331	-38.7338	-93.6742	83.2055	7.53417	-78.8363	79.1769	-11.0048	-99.7381	87.8959	-38.9745	-78.3588	102.446	6.7975	-87.9177	100.602	-24.8352	-106.093	108.869	-43.9025	-80.8886	120.723	-0.363105	-91.2681	116.353	-30.1065	-102.662	120.733	-45.8537	-73.998	141.085	-4.09734	-86.5262	133.626	-33.3671	-96.2547	129.04	-41.72	-66.517	144.338	13.4588	-40.4916	153.29	6.72706	-15.9604	117.886	11.0511	-20.6817	
160	1.33333	99.3296	-19.2895	-20.3568	84.2566	-38.4923	-42.716	77.8964	-43.0235	-69.9269	90.4037	-40.6144	-97.5065	91.0996	9.34288	-85.4122	88.5613	-10.8465	-106.826	94.3088	-38.4074	-82.0781	107.955	3.45666	-96.9191	104.561	-26.7167	-108.691	112.276	-45.3126	-82.2552	128.2	-4.13633	-98.5175	122.227	-32.6321	-103.568	123.099	-45.6225	-71.3286	149.539	-9.36662	-90.6638	138.949	-33.9617	-96.5256	134.718	-43.968	-66.9603	146.4	13.8787	-41.4017	154.164	8.97624	-17.4985	116.533	12.5651	-22.3813	
161	1.34167	97.229	-16.557	-20.1178	85.4157	-35.3006	-47.2988	82.2196	-40.9905	-76.5167	93.7521	-42.9814	-95.825	98.9491	9.73477	-90.2516	97.7798	-12.5484	-112.627	98.0642	-38.2464	-87.1332	114.837	0.770893	-100.814	116.427	-26.8487	-112.829	112.148	-48.0723	-82.8911	137.092	-7.71984	-98.4993	129.992	-37.2424	-103.938	125.941	-48.7414	-74.9824	154.206	-13.794	-90.2281	147.18	-40.7631	-94.4919	137.597	-46.824	-64.094	146.5	14.4823	-46.5465	152.974	10.8632	-13.2731	118.327	16.4999	-25.6007	
162	1.35	97.1145	-11.9734	-25.6625	84.8568	-33.0324	-49.0944	84.9524	-40.6912	-74.967	99.3601	-45.0979	-95.7261	106.512	8.08669	-93.21	105.378	-12.9664	-117.031	99.8859	-39.2926	-98.3777	123.681	-2.15863	-103.671	118.731	-30.9988	-114.15	114.888	-49.4498	-79.4528	140.54	-10.8095	-99.9386	133.623	-39.0398	-104.876	126.476	-47.4323	-70.8535	163.366	-15.4929	-88.3258	149.164	-42.94	-93.428	136.93	-45.9557	-63.0515	153.647	13.3567	-50.0179	155.828	13.3018	-17.0115	118.327	17.1072	-33.5467	
163	1.35833	96.0527	-9.11128	-25.9414	88.1485	-29.4721	-53.3683	89.9831	-39.9552	-78.804	104.347	-46.2073	-97.4667	108.413	7.57285	-102.327	109.024	-14.2683	-120.291	105.917	-42.8318	-98.8385	127.251	-2.01228	-104.489	126.918	-33.8402	-114.554	117.763	-49.6907	-84.1999	148.155	-13.037	-101.042	141.028	-43.6001	-103.012	131.837	-50.9765	-72.6985	164.527	-18.802	-88.8559	151.409	-44.1659	-92.5757	135.978	-47.7856	-62.0332	154.275	14.9979	-49.3267	156.241	15.6994	-20.5139	122.813	18.6223	-32.8231	
164	1.36667	101.112	-4.15749	-30.4334	89.2487	-25.7254	-54.0774	91.082	-37.1718	-81.963	106.645	-44.6415	-95.6149	118.82	8.73404	-102.793	111.612	-16.1144	-123.954	107.862	-41.6336	-108.357	133.259	-4.37519	-107.787	127.724	-34.4296	-114.399	121.003	-49.0226	-80.4572	152.501	-15.0128	-101.691	143.534	-43.9541	-102.15	131.329	-49.2722	-70.3739	169.706	-20.0008	-87.9419	158.372	-48.444	-90.6118	137.187	-47.7568	-61.0785	161.475	15.2346	-50.6828	160.347	15.6978	-17.4627	127.485	21.4108	-35.6712	
165	1.375	104.231	0.820103	-31.8499	91.6144	-22.136	-56.7818	91.9332	-35.1654	-85.8886	112.41	-43.6199	-98.9367	122.008	8.97147	-104.53	118.479	-16.7037	-126.577	110.829	-42.191	-112.947	144.581	-4.99018	-105.974	134.525	-37.3073	-113.455	124.773	-48.8632	-81.0098	160.027	-17.4	-100.894	145.427	-42.3572	-103.962	133.942	-49.4051	-70.5355	169.058	-23.2887	-89.8215	157.783	-46.7539	-91.7085	139.121	-48.7741	-61.2379	163.573	15.539	-48.9693	164.139	15.3197	-21.6674	132.506	23.8646	-39.8933	
166	1.38333	107.07	3.55152	-40.3314	95.9975	-18.7075	-61.3054	93.2394	-32.2873	-83.2948	111.84	-42.1573	-98.9934	132.74	6.83438	-107.611	126.709	-18.337	-127.406	114.49	-43.0673	-114.24	146.344	-6.41386	-111.068	135.058	-36.309	-116.269	121.582	-45.6428	-82.0472	163.218	-18.1866	-100.921	149.925	-47.7556	-101.235	134.157	-49.2678	-72.5934	174.032	-22.9812	-85.4083	160.668	-50.522	-89.3735	139.87	-46.3057	-66.8158	166.744	12.6982	-54.312	165.957	14.9264	-24.5374	137.312	27.0805	-43.5774	
167	1.39167	107.413	6.92696	-42.59	98.0752	-16.0455	-63.4081	99.1339	-32.7366	-91.5274	115.395	-44.9197	-100.903	135.884	7.28414	-112.999	132.3	-16.7889	-130.796	118.828	-44.8872	-111.625	151.86	-7.5167	-112.176	142.352	-37.1054	-118.127	126.409	-47.0574	-82.7916	168.384	-21.5459	-101.01	149.941	-49.2916	-102.528	136.285	-49.6417	-72.8575	179.934	-29.3845	-85.9335	161.572	-51.0273	-89.8307	142.133	-46.4656	-64.4524	172.865	10.0549	-55.5711	170.568	15.7732	-24.0136	144.748	27.7523	-47.4802	
168	1.4	109.834	8.69322	-45.1824	104.281	-16.7367	-67.0284	104.854	-32.4517	-88.181	120.92	-46.2326	-101.835	142.192	5.02344	-112.773	138.449	-24.2207	-129.804	122.997	-44.2755	-111.878	158.616	-9.72061	-111.791	147.107	-39.5273	-119.349	131.291	-47.7706	-86.3194	174.544	-25.9956	-101.041	153.921	-53.9778	-100.188	135.592	-47.3253	-72.7112	183.652	-36.0502	-87.7486	161.238	-52.8449	-87.5826	142.119	-47.5627	-63.1185	178.329	10.3729	-55.1879	172.214	17.033	-29.4268	148.896	26.81	-48.1322	
169	1.40833	115.051	8.67847	-48.9363	104.837	-17.6544	-70.1695	107.567	-34.9503	-89.8785	123.856	-53.1629	-106.061	151.659	-3.27805	-117.672	143.365	-26.3826	-130.559	126.108	-45.3553	-111.136	163.739	-13.8881	-112.869	148.507	-45.4752	-116.997	132.329	-47.8949	-84.2852	176.676	-28.2189	-100.384	157.261	-55.4721	-99.6388	138.401	-48.1864	-72.2103	186.589	-38.7474	-86.2861	168.154	-57.514	-85.0271	143.452	-43.9187	-62.7774	183.423	8.64648	-57.8409	171.137	17.2994	-26.7518	151.157	25.7687	-51.0755	
170	1.41667	120.087	4.58966	-54.0472	107.26	-22.1387	-71.4589	112.424	-42.1204	-94.2193	130.493	-55.1551	-100.565	154.634	-5.84154	-115.273	149.719	-32.7869	-128.738	128.873	-49.4277	-102.262	170.744	-21.2143	-111.328	152.957	-50.6684	-113.725	137.866	-49.1964	-80.5829	179.403	-31.3176	-99.9072	165.595	-57.8586	-99.4232	143.768	-53.4424	-69.8315	189.991	-39.1389	-83.3019	167.872	-59.6084	-81.959	148.747	-46.0148	-57.5617	184.927	4.73778	-58.055	175.02	16.7883	-29.3822	154.666	23.2813	-52.0324	
171	1.425	119.382	1.8739	-56.3055	114.226	-24.9877	-69.8066	121.301	-46.0066	-90.8004	137.816	-60.4013	-99.5837	157.415	-10.946	-117.854	152.608	-40.593	-126.833	134.182	-53.3228	-100.885	173.459	-26.2001	-113.602	161.496	-55.8501	-110.364	142.725	-53.0722	-78.4448	186.842	-34.2282	-96.6734	167.314	-60.9235	-96.2084	148.585	-55.5653	-66.5603	194.42	-41.2509	-83.6915	176.585	-62.2778	-80.6818	152.222	-47.3348	-57.6799	184.772	6.66275	-58.1245	178.159	15.8609	-31.8815	153.083	25.1061	-56.4264	
172	1.43333	124.052	-2.7802	-55.8259	118.492	-31.5793	-69.7083	123.238	-54.0101	-90.5396	146.795	-66.0266	-98.7295	158.189	-13.5924	-117.114	153.411	-45.297	-126.341	138.198	-58.8774	-97.8689	174.302	-26.6638	-113.566	162.68	-57.887	-110.79	149.993	-56.6412	-78.493	188.831	-36.7076	-98.3954	177.549	-63.4644	-94.3628	153.593	-58.0171	-69.2266	202.082	-39.7216	-77.6978	181.598	-64.7904	-75.8427	158.232	-49.3715	-58.6847	187.304	6.18266	-59.7364	177.596	17.1471	-33.5887	157.307	22.0296	-56.5504	
173	1.44167	126.942	-5.35774	-54.0362	124.134	-35.6237	-67.4901	129.493	-58.416	-87.7166	153.243	-71.9244	-96.6212	161.809	-19.2714	-119.059	162.784	-48.8435	-124.329	149.908	-64.0408	-95.5592	181.608	-29.1865	-111.232	171.589	-60.231	-110.037	154.982	-59.0049	-76.1892	193.734	-35.4794	-95.6307	181.274	-63.4979	-92.3383	160.108	-59.3897	-64.3188	206.141	-37.9343	-76.2696	189.283	-62.6964	-76.9658	162.379	-54.8285	-57.1657	186.977	7.34168	-57.7568	179.003	20.9529	-32.1814	153.313	21.0374	-60.702	
